<svg width="24" height="16" viewBox="0 0 24 16" fill="none" xmlns="http://www.w3.org/2000/svg">
<g id="mastercard">
<path d="M23.7705 12.6487V12.3574H23.6985L23.6145 12.5516L23.5305 12.3574H23.4585V12.6487H23.5065V12.4302L23.5905 12.6244H23.6505L23.7345 12.4302V12.6487H23.7705ZM23.2905 12.6487V12.406H23.3865V12.3574H23.1465V12.406H23.2425V12.6487H23.2905Z" fill="#00A2E5"/>
<path d="M15.2361 13.8978H8.74414V2.10173H15.2361V13.8978Z" fill="#FF5F00"/>
<path d="M9.16605 8C9.16605 5.60922 10.27 3.4733 11.998 2.10194C10.738 1.09466 9.14205 0.5 7.41405 0.5C3.32205 0.5 -0.00195312 3.86165 -0.00195312 8C-0.00195312 12.1383 3.32205 15.5 7.41405 15.5C9.14205 15.5 10.738 14.9053 11.998 13.8981C10.27 12.5267 9.16605 10.3908 9.16605 8Z" fill="#EB001B"/>
<path d="M23.998 8C23.998 12.1383 20.674 15.5 16.582 15.5C14.854 15.5 13.258 14.9053 11.998 13.8981C13.726 12.5267 14.83 10.3908 14.83 8C14.83 5.60922 13.726 3.4733 11.998 2.10194C13.258 1.09466 14.854 0.5 16.582 0.5C20.674 0.5 23.998 3.86165 23.998 8Z" fill="#F79E1B"/>
</g>
</svg>
