<svg width="30" height="10" viewBox="0 0 30 10" fill="none" xmlns="http://www.w3.org/2000/svg">
<g id="visa">
<path fill-rule="evenodd" clip-rule="evenodd" d="M12.1232 0.172908L10.5963 9.83373H13.0392L14.5663 0.172908H12.1232ZM8.54088 0.172908L6.21169 6.81753L5.93618 5.38671L5.87566 5.06649C5.59377 4.44105 4.94091 3.25234 3.70812 2.23788C3.34365 1.93802 2.97626 1.68211 2.62109 1.46351L4.73795 9.83373H7.2833L11.1702 0.172908H8.54088ZM18.0753 2.85494C18.0753 1.7627 20.4545 1.90305 21.4999 2.49613L21.8485 0.421247C21.8485 0.421247 20.7726 0 19.6512 0C18.4388 0 15.5598 0.545853 15.5598 3.19814C15.5598 5.69427 18.9388 5.72529 18.9388 7.03579C18.9388 8.3463 15.9082 8.11209 14.908 7.28541L14.5445 9.45415C14.5445 9.45415 15.6353 10 17.3024 10C18.9693 10 21.4847 9.11095 21.4847 6.69259C21.4847 4.18085 18.0753 3.94691 18.0753 2.85494ZM28.0443 0.172908H26.0801C25.1731 0.172908 24.9523 0.892873 24.9523 0.892873L21.309 9.83373H23.8553L24.3647 8.39882H27.4705L27.757 9.83373H30.0001L28.0443 0.172908ZM25.0687 6.41632L26.3525 2.80101L27.0746 6.41632H25.0687Z" fill="#1C83E2"/>
<path fill-rule="evenodd" clip-rule="evenodd" d="M5.14868 1.08284C5.14868 1.08284 5.04756 0.210938 3.96802 0.210938H0.0459407L0 0.3748C0 0.3748 1.88526 0.770456 3.69393 2.25279C5.42237 3.66955 5.98622 5.4356 5.98622 5.4356L5.14868 1.08284Z" fill="#1C83E2"/>
</g>
</svg>
