<svg xmlns="http://www.w3.org/2000/svg"><svg id="burger" xmlns="http://www.w3.org/2000/svg" viewBox="0 0 24 24"><g id="icon / burger"><path id="Vector" d="M3 4.99988H21V6.74988H3V4.99988ZM3 11.1249H21V12.8749H3V11.1249ZM3 17.2499H21V18.9999H3V17.2499Z"/></g></svg><svg id="check" xmlns="http://www.w3.org/2000/svg" viewBox="0 0 24 24"><g id="icon / check"><path id="Vector" d="M11.0024 16L6.75977 11.7574L8.17399 10.3431L11.0024 13.1716L16.6593 7.51471L18.0735 8.92892L11.0024 16Z"/></g></svg><svg id="chevron" xmlns="http://www.w3.org/2000/svg" viewBox="0 0 24 24"><g id="icon / chevron"><path id="Vector" d="M10.8284 12.0007L15.7782 16.9504L14.364 18.3646L8 12.0007L14.364 5.63672L15.7782 7.05093L10.8284 12.0007Z"/></g></svg><svg id="closelarge" xmlns="http://www.w3.org/2000/svg" viewBox="0 0 24 24"><g id="size=large"><path id="Vector" d="M10.5859 12L2.79297 4.20706L4.20718 2.79285L12.0001 10.5857L19.793 2.79285L21.2072 4.20706L13.4143 12L21.2072 19.7928L19.793 21.2071L12.0001 13.4142L4.20718 21.2071L2.79297 19.7928L10.5859 12Z"/></g></svg><svg id="closesmall" xmlns="http://www.w3.org/2000/svg" viewBox="0 0 24 24"><g id="size=small"><path id="Vector" d="M11.9987 10.5865L16.9485 5.63672L18.3627 7.05093L13.4129 12.0007L18.3627 16.9504L16.9485 18.3646L11.9987 13.4149L7.04899 18.3646L5.63477 16.9504L10.5845 12.0007L5.63477 7.05093L7.04899 5.63672L11.9987 10.5865Z"/></g></svg><svg id="comment" xmlns="http://www.w3.org/2000/svg" viewBox="0 0 20 20"><g id="Frame"><path id="Vector" d="M20 10L15.2859 14.7141L14.1074 13.5355L17.643 10L14.1074 6.46447L15.2859 5.28596L20 10ZM2.35702 10L5.89256 13.5355L4.71404 14.7141L0 10L4.71404 5.28596L5.89256 6.46447L2.35702 10ZM8.15704 17.5H6.38341L11.843 2.5H13.6166L8.15704 17.5Z"/></g></svg><svg id="copyright" xmlns="http://www.w3.org/2000/svg" viewBox="0 0 24 24"><g id="icon / copyright"><path id="Vector" d="M16.2877 9.42773C15.413 7.97351 13.8195 7 12 7C9.23999 7 7 9.23999 7 12C7 14.76 9.23999 17 12 17C13.8195 17 15.413 16.0265 16.2877 14.5723L14.5729 13.5442C14.0483 14.4166 13.0927 15 12 15C10.3425 15 9 13.6575 9 12C9 10.3425 10.3425 9 12 9C13.093 9 14.0491 9.58386 14.5735 10.4568L16.2877 9.42773ZM22 12C22 6.47998 17.52 2 12 2C6.47998 2 2 6.47998 2 12C2 17.52 6.47998 22 12 22C17.52 22 22 17.52 22 12ZM4 12C4 7.57996 7.57996 4 12 4C16.42 4 20 7.57996 20 12C20 16.42 16.42 20 12 20C7.57996 20 4 16.42 4 12Z"/></g></svg><svg id="edit" xmlns="http://www.w3.org/2000/svg" viewBox="0 0 24 24"><g id="icon / edit"><path id="Vector" d="M6.41421 15.89L16.5563 5.74786L15.1421 4.33364L5 14.4758V15.89H6.41421ZM7.24264 17.89H3V13.6473L14.435 2.21232C14.8256 1.8218 15.4587 1.8218 15.8492 2.21232L18.6777 5.04075C19.0682 5.43127 19.0682 6.06444 18.6777 6.45496L7.24264 17.89ZM3 19.89H21V21.89H3V19.89Z"/></g></svg><svg id="genres" xmlns="http://www.w3.org/2000/svg" viewBox="0 0 24 24"><g id="icon / genres"><path id="Vector" d="M7 11.5C4.51472 11.5 2.5 9.48528 2.5 7C2.5 4.51472 4.51472 2.5 7 2.5C9.48528 2.5 11.5 4.51472 11.5 7C11.5 9.48528 9.48528 11.5 7 11.5ZM7 21.5C4.51472 21.5 2.5 19.4853 2.5 17C2.5 14.5147 4.51472 12.5 7 12.5C9.48528 12.5 11.5 14.5147 11.5 17C11.5 19.4853 9.48528 21.5 7 21.5ZM17 11.5C14.5147 11.5 12.5 9.48528 12.5 7C12.5 4.51472 14.5147 2.5 17 2.5C19.4853 2.5 21.5 4.51472 21.5 7C21.5 9.48528 19.4853 11.5 17 11.5ZM17 21.5C14.5147 21.5 12.5 19.4853 12.5 17C12.5 14.5147 14.5147 12.5 17 12.5C19.4853 12.5 21.5 14.5147 21.5 17C21.5 19.4853 19.4853 21.5 17 21.5ZM7 9.5C8.38071 9.5 9.5 8.38071 9.5 7C9.5 5.61929 8.38071 4.5 7 4.5C5.61929 4.5 4.5 5.61929 4.5 7C4.5 8.38071 5.61929 9.5 7 9.5ZM7 19.5C8.38071 19.5 9.5 18.3807 9.5 17C9.5 15.6193 8.38071 14.5 7 14.5C5.61929 14.5 4.5 15.6193 4.5 17C4.5 18.3807 5.61929 19.5 7 19.5ZM17 9.5C18.3807 9.5 19.5 8.38071 19.5 7C19.5 5.61929 18.3807 4.5 17 4.5C15.6193 4.5 14.5 5.61929 14.5 7C14.5 8.38071 15.6193 9.5 17 9.5ZM17 19.5C18.3807 19.5 19.5 18.3807 19.5 17C19.5 15.6193 18.3807 14.5 17 14.5C15.6193 14.5 14.5 15.6193 14.5 17C14.5 18.3807 15.6193 19.5 17 19.5Z"/></g></svg><svg id="info" xmlns="http://www.w3.org/2000/svg" viewBox="0 0 24 24"><g id="icon / info"><path id="Vector" d="M12 22C6.47715 22 2 17.5228 2 12C2 6.47715 6.47715 2 12 2C17.5228 2 22 6.47715 22 12C22 17.5228 17.5228 22 12 22ZM12 20C16.4183 20 20 16.4183 20 12C20 7.58172 16.4183 4 12 4C7.58172 4 4 7.58172 4 12C4 16.4183 7.58172 20 12 20ZM11 7H13V9H11V7ZM11 11H13V17H11V11Z"/></g></svg><svg id="key" xmlns="http://www.w3.org/2000/svg" viewBox="0 0 24 24"><g id="icon / key"><path id="Vector" d="M12.917 13C12.441 15.8377 9.973 18 7 18C3.68629 18 1 15.3137 1 12C1 8.68629 3.68629 6 7 6C9.973 6 12.441 8.16229 12.917 11H23V13H21V17H19V13H17V17H15V13H12.917ZM7 16C9.20914 16 11 14.2091 11 12C11 9.79086 9.20914 8 7 8C4.79086 8 3 9.79086 3 12C3 14.2091 4.79086 16 7 16Z"/></g></svg><svg id="like" xmlns="http://www.w3.org/2000/svg" viewBox="0 0 24 24"><g id="on=false"><path id="Vector" d="M16.5 3C19.5376 3 22 5.5 22 9C22 16 14.5 20 12 21.5C9.5 20 2 16 2 9C2 5.5 4.5 3 7.5 3C9.35997 3 11 4 12 5C13 4 14.64 3 16.5 3ZM12.9339 18.6038C13.8155 18.0485 14.61 17.4955 15.3549 16.9029C18.3337 14.533 20 11.9435 20 9C20 6.64076 18.463 5 16.5 5C15.4241 5 14.2593 5.56911 13.4142 6.41421L12 7.82843L10.5858 6.41421C9.74068 5.56911 8.5759 5 7.5 5C5.55906 5 4 6.6565 4 9C4 11.9435 5.66627 14.533 8.64514 16.9029C9.39 17.4955 10.1845 18.0485 11.0661 18.6038C11.3646 18.7919 11.6611 18.9729 12 19.1752C12.3389 18.9729 12.6354 18.7919 12.9339 18.6038Z"/></g></svg><svg id="likefilled" xmlns="http://www.w3.org/2000/svg" viewBox="0 0 24 24"><g id="icon / favorite"><path id="Vector" d="M16.5 3C19.5376 3 22 5.5 22 9C22 16 14.5 20 12 21.5C9.5 20 2 16 2 9C2 5.5 4.5 3 7.5 3C9.35997 3 11 4 12 5C13 4 14.64 3 16.5 3Z"/></g></svg><svg id="loader" xmlns="http://www.w3.org/2000/svg" viewBox="0 0 24 24"><g id="icon / loader"><path id="Vector" d="M18.364 5.63604L16.9497 7.05025C15.683 5.7835 13.933 5 12 5C8.13401 5 5 8.13401 5 12C5 15.866 8.13401 19 12 19C15.866 19 19 15.866 19 12H21C21 16.9706 16.9706 21 12 21C7.02944 21 3 16.9706 3 12C3 7.02944 7.02944 3 12 3C14.4853 3 16.7353 4.00736 18.364 5.63604Z"/></g></svg><svg id="mail" xmlns="http://www.w3.org/2000/svg" viewBox="0 0 24 24"><g id="icon / mail"><path id="Vector" d="M21 3C21.5523 3 22 3.44772 22 4V20.0066C22 20.5552 21.5447 21 21.0082 21H2.9918C2.44405 21 2 20.5551 2 20.0066V19H20V7.3L12 14.5L2 5.5V4C2 3.44772 2.44772 3 3 3H21ZM8 15V17H0V15H8ZM5 10V12H0V10H5ZM19.5659 5H4.43414L12 11.8093L19.5659 5Z"/></g></svg><svg id="pause" xmlns="http://www.w3.org/2000/svg" viewBox="0 0 24 24"><g id="type=pause"><path id="Vector" d="M6 3H8V21H6V3ZM16 3H18V21H16V3Z"/></g></svg><svg id="phone" xmlns="http://www.w3.org/2000/svg" viewBox="0 0 24 24"><g id="icon / phone"><path id="Vector" d="M9.36556 10.6821C10.302 12.3288 11.6712 13.698 13.3179 14.6344L14.2024 13.3961C14.4965 12.9845 15.0516 12.8573 15.4956 13.0998C16.9024 13.8683 18.4571 14.3353 20.0789 14.4637C20.599 14.5049 21 14.9389 21 15.4606V19.9234C21 20.4361 20.6122 20.8657 20.1022 20.9181C19.5723 20.9726 19.0377 21 18.5 21C9.93959 21 3 14.0604 3 5.5C3 4.96227 3.02742 4.42771 3.08189 3.89776C3.1343 3.38775 3.56394 3 4.07665 3H8.53942C9.0611 3 9.49513 3.40104 9.5363 3.92109C9.66467 5.54288 10.1317 7.09764 10.9002 8.50444C11.1427 8.9484 11.0155 9.50354 10.6039 9.79757L9.36556 10.6821ZM6.84425 10.0252L8.7442 8.66809C8.20547 7.50514 7.83628 6.27183 7.64727 5H5.00907C5.00303 5.16632 5 5.333 5 5.5C5 12.9558 11.0442 19 18.5 19C18.667 19 18.8337 18.997 19 18.9909V16.3527C17.7282 16.1637 16.4949 15.7945 15.3319 15.2558L13.9748 17.1558C13.4258 16.9425 12.8956 16.6915 12.3874 16.4061L12.3293 16.373C10.3697 15.2587 8.74134 13.6303 7.627 11.6707L7.59394 11.6126C7.30849 11.1044 7.05754 10.5742 6.84425 10.0252Z"/></g></svg><svg id="play" xmlns="http://www.w3.org/2000/svg" viewBox="0 0 24 24"><g id="type=play"><path id="Vector" d="M6 20.1957V3.80421C6 3.01878 6.86395 2.53993 7.53 2.95621L20.6432 11.152C21.2699 11.5436 21.2699 12.4563 20.6432 12.848L7.53 21.0437C6.86395 21.46 6 20.9812 6 20.1957Z"/></g></svg><svg id="reload" xmlns="http://www.w3.org/2000/svg" viewBox="0 0 24 24"><g id="Frame"><path id="Vector" d="M12 4C14.7486 4 17.1749 5.38626 18.6156 7.5H16V9.5H22V3.5H20V5.99936C18.1762 3.57166 15.2724 2 12 2C6.47715 2 2 6.47715 2 12H4C4 7.58172 7.58172 4 12 4ZM20 12C20 16.4183 16.4183 20 12 20C9.25144 20 6.82508 18.6137 5.38443 16.5H8V14.5H2V20.5H4V18.0006C5.82381 20.4283 8.72764 22 12 22C17.5228 22 22 17.5228 22 12H20Z"/></g></svg><svg id="search" xmlns="http://www.w3.org/2000/svg" viewBox="0 0 24 24"><g id="icon / search"><path id="Vector" d="M18.031 16.6168L22.3137 20.8995L20.8995 22.3137L16.6168 18.031C15.0769 19.263 13.124 20 11 20C6.032 20 2 15.968 2 11C2 6.032 6.032 2 11 2C15.968 2 20 6.032 20 11C20 13.124 19.263 15.0769 18.031 16.6168ZM16.0247 15.8748C17.2475 14.6146 18 12.8956 18 11C18 7.1325 14.8675 4 11 4C7.1325 4 4 7.1325 4 11C4 14.8675 7.1325 18 11 18C12.8956 18 14.6146 17.2475 15.8748 16.0247L16.0247 15.8748Z"/></g></svg><svg id="send" xmlns="http://www.w3.org/2000/svg" viewBox="0 0 24 24"><g id="icon / send"><path id="Vector" d="M1.9468 10.3153C1.42426 10.1411 1.42013 9.8601 1.95755 9.68096L21.0437 3.31889C21.5722 3.14273 21.8753 3.43854 21.7272 3.95682L16.274 23.0431C16.123 23.5715 15.8184 23.5899 15.5951 23.0875L12.0006 14.9999L18.0006 6.99993L10.0007 12.9999L1.9468 10.3153Z"/></g></svg><svg id="star" xmlns="http://www.w3.org/2000/svg" viewBox="0 0 24 24"><g id="icon / star"><path id="Vector" d="M12.0006 18.26L4.94715 22.2082L6.52248 14.2799L0.587891 8.7918L8.61493 7.84006L12.0006 0.5L15.3862 7.84006L23.4132 8.7918L17.4787 14.2799L19.054 22.2082L12.0006 18.26Z"/></g></svg><svg id="user" xmlns="http://www.w3.org/2000/svg" viewBox="0 0 24 24"><g id="filled=false"><path id="Vector" d="M4 22C4 17.5817 7.58172 14 12 14C16.4183 14 20 17.5817 20 22H18C18 18.6863 15.3137 16 12 16C8.68629 16 6 18.6863 6 22H4ZM12 13C8.685 13 6 10.315 6 7C6 3.685 8.685 1 12 1C15.315 1 18 3.685 18 7C18 10.315 15.315 13 12 13ZM12 11C14.21 11 16 9.21 16 7C16 4.79 14.21 3 12 3C9.79 3 8 4.79 8 7C8 9.21 9.79 11 12 11Z"/></g></svg><svg id="logo" fill="none" xmlns="http://www.w3.org/2000/svg" viewBox="0 0 240 32"><g id="logo"><g id="CinemaGuide"><path d="M11.8076 32C10.6569 32 9.62393 31.9399 8.70861 31.8197C7.81944 31.6995 6.83874 31.4742 5.76651 31.1437C4.56352 30.7831 3.56974 30.3174 2.78518 29.7465C2.00063 29.1455 1.34683 28.3192 0.823787 27.2676C0.274596 26.216 0 24.969 0 23.5268V10.6817C0 4.79249 3.93587 1.84789 11.8076 1.84789C13.8213 1.84789 16.515 2.1784 19.8886 2.83944V8.11268C16.8549 7.27136 14.1874 6.8507 11.8861 6.8507C10.9184 6.8507 10.16 6.88075 9.61085 6.94085C9.08781 7.00094 8.53862 7.15117 7.96327 7.39155C6.73413 7.8723 6.11956 8.93897 6.11956 10.5915V23.031C6.11956 25.6751 8.2248 26.9972 12.4353 26.9972C14.2397 26.9972 16.7765 26.5615 20.0455 25.6901V31.0085C17.2472 31.6695 14.5013 32 11.8076 32Z" fill="black"/><path d="M11.8076 32C10.6569 32 9.62393 31.9399 8.70861 31.8197C7.81944 31.6995 6.83874 31.4742 5.76651 31.1437C4.56352 30.7831 3.56974 30.3174 2.78518 29.7465C2.00063 29.1455 1.34683 28.3192 0.823787 27.2676C0.274596 26.216 0 24.969 0 23.5268V10.6817C0 4.79249 3.93587 1.84789 11.8076 1.84789C13.8213 1.84789 16.515 2.1784 19.8886 2.83944V8.11268C16.8549 7.27136 14.1874 6.8507 11.8861 6.8507C10.9184 6.8507 10.16 6.88075 9.61085 6.94085C9.08781 7.00094 8.53862 7.15117 7.96327 7.39155C6.73413 7.8723 6.11956 8.93897 6.11956 10.5915V23.031C6.11956 25.6751 8.2248 26.9972 12.4353 26.9972C14.2397 26.9972 16.7765 26.5615 20.0455 25.6901V31.0085C17.2472 31.6695 14.5013 32 11.8076 32Z" fill="url(#paint0_linear_9_1264)"/><path d="M23.8773 1.84789H29.6045V7.1662H23.8773V1.84789ZM23.8773 9.73521H29.6045V31.5493H23.8773V9.73521Z" fill="black"/><path d="M23.8773 1.84789H29.6045V7.1662H23.8773V1.84789ZM23.8773 9.73521H29.6045V31.5493H23.8773V9.73521Z" fill="url(#paint1_linear_9_1264)"/><path d="M34.7915 9.73521H40.4403V12.3944C40.8849 10.3211 42.9117 9.28451 46.5207 9.28451C48.9528 9.28451 50.6527 9.79531 51.6203 10.8169C52.6141 11.8085 53.111 13.3859 53.111 15.5493V31.5493H47.3837V16.4056C47.3837 15.5643 47.3052 14.9333 47.1483 14.5127C47.0176 14.092 46.7299 13.7915 46.2853 13.6113C45.8669 13.431 45.2131 13.3408 44.3239 13.3408C43.1994 13.3408 42.3756 13.431 41.8526 13.6113C41.3295 13.7615 40.9765 14.0469 40.7934 14.4676C40.6103 14.8883 40.5188 15.5343 40.5188 16.4056V31.5493H34.7915V9.73521Z" fill="black"/><path d="M34.7915 9.73521H40.4403V12.3944C40.8849 10.3211 42.9117 9.28451 46.5207 9.28451C48.9528 9.28451 50.6527 9.79531 51.6203 10.8169C52.6141 11.8085 53.111 13.3859 53.111 15.5493V31.5493H47.3837V16.4056C47.3837 15.5643 47.3052 14.9333 47.1483 14.5127C47.0176 14.092 46.7299 13.7915 46.2853 13.6113C45.8669 13.431 45.2131 13.3408 44.3239 13.3408C43.1994 13.3408 42.3756 13.431 41.8526 13.6113C41.3295 13.7615 40.9765 14.0469 40.7934 14.4676C40.6103 14.8883 40.5188 15.5343 40.5188 16.4056V31.5493H34.7915V9.73521Z" fill="url(#paint2_linear_9_1264)"/><path d="M67.6538 32C60.9328 32 57.5722 29.6413 57.5722 24.9239V17.0817C57.5722 14.3474 58.3306 12.3643 59.8475 11.1324C61.3904 9.90047 63.7572 9.28451 66.9477 9.28451C69.9552 9.28451 72.152 9.88545 73.538 11.0873C74.9502 12.2592 75.6563 14.2573 75.6563 17.0817V22.4H63.3387V24.3831C63.3387 25.6451 63.731 26.5465 64.5156 27.0873C65.3001 27.6282 66.7123 27.8986 68.7522 27.8986C70.6351 27.8986 72.7535 27.5831 75.1071 26.9521V31.1437C72.7796 31.7146 70.2952 32 67.6538 32ZM70.2036 18.6592V15.5042C70.2036 14.7831 69.9421 14.2423 69.4191 13.8817C68.9222 13.5211 68.0723 13.3408 66.8693 13.3408C65.4832 13.3408 64.5548 13.5211 64.0841 13.8817C63.5872 14.2723 63.3387 14.8131 63.3387 15.5042V18.6592H70.2036Z" fill="black"/><path d="M67.6538 32C60.9328 32 57.5722 29.6413 57.5722 24.9239V17.0817C57.5722 14.3474 58.3306 12.3643 59.8475 11.1324C61.3904 9.90047 63.7572 9.28451 66.9477 9.28451C69.9552 9.28451 72.152 9.88545 73.538 11.0873C74.9502 12.2592 75.6563 14.2573 75.6563 17.0817V22.4H63.3387V24.3831C63.3387 25.6451 63.731 26.5465 64.5156 27.0873C65.3001 27.6282 66.7123 27.8986 68.7522 27.8986C70.6351 27.8986 72.7535 27.5831 75.1071 26.9521V31.1437C72.7796 31.7146 70.2952 32 67.6538 32ZM70.2036 18.6592V15.5042C70.2036 14.7831 69.9421 14.2423 69.4191 13.8817C68.9222 13.5211 68.0723 13.3408 66.8693 13.3408C65.4832 13.3408 64.5548 13.5211 64.0841 13.8817C63.5872 14.2723 63.3387 14.8131 63.3387 15.5042V18.6592H70.2036Z" fill="url(#paint3_linear_9_1264)"/><path d="M80.0339 9.73521H85.7612V12.3944C86.1273 10.3211 87.9972 9.28451 91.3708 9.28451C93.1491 9.28451 94.496 9.55493 95.4113 10.0958C96.3266 10.6066 96.9412 11.4178 97.255 12.5296C97.5688 11.3878 98.1703 10.5615 99.0595 10.0507C99.9748 9.53991 101.348 9.28451 103.178 9.28451C104.826 9.28451 106.094 9.50986 106.984 9.96056C107.873 10.3812 108.487 11.0423 108.827 11.9437C109.193 12.8451 109.376 14.0469 109.376 15.5493V31.5493H103.649V16.4507C103.649 15.4892 103.597 14.8131 103.492 14.4225C103.388 14.0019 103.152 13.7164 102.786 13.5662C102.446 13.416 101.845 13.3408 100.982 13.3408C99.9094 13.3408 99.1379 13.416 98.6672 13.5662C98.2226 13.7164 97.9219 14.0019 97.765 14.4225C97.6342 14.8131 97.5688 15.4892 97.5688 16.4507V31.5493H91.8415V16.4507C91.8415 15.4892 91.7892 14.8131 91.6846 14.4225C91.58 14.0019 91.3447 13.7164 90.9785 13.5662C90.6385 13.416 90.037 13.3408 89.174 13.3408C88.1018 13.3408 87.3303 13.416 86.8596 13.5662C86.415 13.7164 86.1143 14.0019 85.9573 14.4225C85.8266 14.8131 85.7612 15.4892 85.7612 16.4507V31.5493H80.0339V9.73521Z" fill="black"/><path d="M80.0339 9.73521H85.7612V12.3944C86.1273 10.3211 87.9972 9.28451 91.3708 9.28451C93.1491 9.28451 94.496 9.55493 95.4113 10.0958C96.3266 10.6066 96.9412 11.4178 97.255 12.5296C97.5688 11.3878 98.1703 10.5615 99.0595 10.0507C99.9748 9.53991 101.348 9.28451 103.178 9.28451C104.826 9.28451 106.094 9.50986 106.984 9.96056C107.873 10.3812 108.487 11.0423 108.827 11.9437C109.193 12.8451 109.376 14.0469 109.376 15.5493V31.5493H103.649V16.4507C103.649 15.4892 103.597 14.8131 103.492 14.4225C103.388 14.0019 103.152 13.7164 102.786 13.5662C102.446 13.416 101.845 13.3408 100.982 13.3408C99.9094 13.3408 99.1379 13.416 98.6672 13.5662C98.2226 13.7164 97.9219 14.0019 97.765 14.4225C97.6342 14.8131 97.5688 15.4892 97.5688 16.4507V31.5493H91.8415V16.4507C91.8415 15.4892 91.7892 14.8131 91.6846 14.4225C91.58 14.0019 91.3447 13.7164 90.9785 13.5662C90.6385 13.416 90.037 13.3408 89.174 13.3408C88.1018 13.3408 87.3303 13.416 86.8596 13.5662C86.415 13.7164 86.1143 14.0019 85.9573 14.4225C85.8266 14.8131 85.7612 15.4892 85.7612 16.4507V31.5493H80.0339V9.73521Z" fill="url(#paint4_linear_9_1264)"/><path d="M119.771 32C117.993 32 116.659 31.8197 115.77 31.4592C114.907 31.0685 114.292 30.3925 113.926 29.431C113.586 28.4394 113.416 26.9671 113.416 25.0141C113.416 23.2714 113.599 21.9042 113.965 20.9127C114.357 19.9211 114.972 19.215 115.809 18.7944C116.672 18.3437 117.849 18.1183 119.339 18.1183H125.773V16.631C125.773 15.6995 125.655 15.0085 125.42 14.5577C125.211 14.107 124.805 13.7915 124.204 13.6113C123.628 13.431 122.752 13.3408 121.575 13.3408C119.954 13.3408 117.731 13.5211 114.907 13.8817V9.73521C116.973 9.43474 119.392 9.28451 122.164 9.28451C124.596 9.28451 126.466 9.49484 127.773 9.91549C129.107 10.3362 130.062 11.0573 130.637 12.0789C131.212 13.1005 131.5 14.5878 131.5 16.5408V31.5493H125.89V29.5662C125.446 30.4376 124.844 31.0535 124.086 31.4141C123.328 31.8047 121.889 32 119.771 32ZM122.007 27.8986C123.158 27.8986 123.981 27.8535 124.478 27.7634C124.844 27.7033 125.093 27.6131 125.224 27.493C125.381 27.3728 125.511 27.1775 125.616 26.907C125.72 26.6967 125.773 26.3812 125.773 25.9606V21.7239H121.85C120.961 21.7239 120.333 21.7991 119.967 21.9493C119.601 22.0695 119.352 22.3399 119.222 22.7606C119.091 23.1512 119.026 23.8573 119.026 24.8789C119.026 25.8704 119.091 26.5615 119.222 26.9521C119.352 27.3427 119.601 27.5981 119.967 27.7183C120.359 27.8385 121.039 27.8986 122.007 27.8986Z" fill="black"/><path d="M119.771 32C117.993 32 116.659 31.8197 115.77 31.4592C114.907 31.0685 114.292 30.3925 113.926 29.431C113.586 28.4394 113.416 26.9671 113.416 25.0141C113.416 23.2714 113.599 21.9042 113.965 20.9127C114.357 19.9211 114.972 19.215 115.809 18.7944C116.672 18.3437 117.849 18.1183 119.339 18.1183H125.773V16.631C125.773 15.6995 125.655 15.0085 125.42 14.5577C125.211 14.107 124.805 13.7915 124.204 13.6113C123.628 13.431 122.752 13.3408 121.575 13.3408C119.954 13.3408 117.731 13.5211 114.907 13.8817V9.73521C116.973 9.43474 119.392 9.28451 122.164 9.28451C124.596 9.28451 126.466 9.49484 127.773 9.91549C129.107 10.3362 130.062 11.0573 130.637 12.0789C131.212 13.1005 131.5 14.5878 131.5 16.5408V31.5493H125.89V29.5662C125.446 30.4376 124.844 31.0535 124.086 31.4141C123.328 31.8047 121.889 32 119.771 32ZM122.007 27.8986C123.158 27.8986 123.981 27.8535 124.478 27.7634C124.844 27.7033 125.093 27.6131 125.224 27.493C125.381 27.3728 125.511 27.1775 125.616 26.907C125.72 26.6967 125.773 26.3812 125.773 25.9606V21.7239H121.85C120.961 21.7239 120.333 21.7991 119.967 21.9493C119.601 22.0695 119.352 22.3399 119.222 22.7606C119.091 23.1512 119.026 23.8573 119.026 24.8789C119.026 25.8704 119.091 26.5615 119.222 26.9521C119.352 27.3427 119.601 27.5981 119.967 27.7183C120.359 27.8385 121.039 27.8986 122.007 27.8986Z" fill="url(#paint5_linear_9_1264)"/><path d="M148.896 32C147.431 32 146.137 31.9249 145.012 31.7746C143.888 31.6244 142.776 31.369 141.678 31.0085C140.501 30.6479 139.533 30.1671 138.775 29.5662C138.017 28.9352 137.402 28.1239 136.931 27.1324C136.461 26.0808 136.225 24.8789 136.225 23.5268V11.3577C136.225 9.88545 136.487 8.56338 137.01 7.39155C137.533 6.18967 138.239 5.24319 139.128 4.55211C139.965 3.92113 140.959 3.38028 142.109 2.92958C143.286 2.47887 144.437 2.1784 145.561 2.02817C146.503 1.90798 147.641 1.84789 148.974 1.84789C152.583 1.84789 156.035 2.16338 159.33 2.79437V8.11268C156.297 7.27136 152.845 6.8507 148.974 6.8507C144.555 6.8507 142.345 8.323 142.345 11.2676V23.031C142.345 24.4732 142.933 25.4948 144.11 26.0958C145.313 26.6967 147.117 26.9972 149.523 26.9972C150.805 26.9972 152.178 26.7718 153.642 26.3211V19.5155H149.484V14.9183H159.487V30.107C158.18 30.6479 156.506 31.0986 154.466 31.4592C152.453 31.8197 150.596 32 148.896 32Z" fill="black"/><path d="M148.896 32C147.431 32 146.137 31.9249 145.012 31.7746C143.888 31.6244 142.776 31.369 141.678 31.0085C140.501 30.6479 139.533 30.1671 138.775 29.5662C138.017 28.9352 137.402 28.1239 136.931 27.1324C136.461 26.0808 136.225 24.8789 136.225 23.5268V11.3577C136.225 9.88545 136.487 8.56338 137.01 7.39155C137.533 6.18967 138.239 5.24319 139.128 4.55211C139.965 3.92113 140.959 3.38028 142.109 2.92958C143.286 2.47887 144.437 2.1784 145.561 2.02817C146.503 1.90798 147.641 1.84789 148.974 1.84789C152.583 1.84789 156.035 2.16338 159.33 2.79437V8.11268C156.297 7.27136 152.845 6.8507 148.974 6.8507C144.555 6.8507 142.345 8.323 142.345 11.2676V23.031C142.345 24.4732 142.933 25.4948 144.11 26.0958C145.313 26.6967 147.117 26.9972 149.523 26.9972C150.805 26.9972 152.178 26.7718 153.642 26.3211V19.5155H149.484V14.9183H159.487V30.107C158.18 30.6479 156.506 31.0986 154.466 31.4592C152.453 31.8197 150.596 32 148.896 32Z" fill="url(#paint6_linear_9_1264)"/><path d="M170.788 32C168.356 32 166.643 31.5042 165.649 30.5127C164.682 29.4911 164.198 27.8986 164.198 25.7352V9.73521H169.925V24.8338C169.925 25.6751 169.99 26.3061 170.121 26.7268C170.278 27.1474 170.566 27.4479 170.984 27.6282C171.429 27.8085 172.096 27.8986 172.985 27.8986C174.109 27.8986 174.933 27.8235 175.456 27.6732C175.979 27.493 176.332 27.1925 176.515 26.7718C176.698 26.3512 176.79 25.7052 176.79 24.8338V9.73521H182.517V31.5493H176.868V28.8901C176.45 30.9634 174.423 32 170.788 32Z" fill="black"/><path d="M170.788 32C168.356 32 166.643 31.5042 165.649 30.5127C164.682 29.4911 164.198 27.8986 164.198 25.7352V9.73521H169.925V24.8338C169.925 25.6751 169.99 26.3061 170.121 26.7268C170.278 27.1474 170.566 27.4479 170.984 27.6282C171.429 27.8085 172.096 27.8986 172.985 27.8986C174.109 27.8986 174.933 27.8235 175.456 27.6732C175.979 27.493 176.332 27.1925 176.515 26.7718C176.698 26.3512 176.79 25.7052 176.79 24.8338V9.73521H182.517V31.5493H176.868V28.8901C176.45 30.9634 174.423 32 170.788 32Z" fill="url(#paint7_linear_9_1264)"/><path d="M187.685 1.84789H193.412V7.1662H187.685V1.84789ZM187.685 9.73521H193.412V31.5493H187.685V9.73521Z" fill="black"/><path d="M187.685 1.84789H193.412V7.1662H187.685V1.84789ZM187.685 9.73521H193.412V31.5493H187.685V9.73521Z" fill="url(#paint8_linear_9_1264)"/><path d="M205.895 32C203.646 32 201.986 31.8197 200.913 31.4592C199.841 31.0685 199.096 30.3474 198.677 29.2958C198.259 28.2441 198.05 26.6066 198.05 24.3831V15.8648C198.05 13.461 198.638 11.7634 199.815 10.7718C201.018 9.78028 202.953 9.28451 205.621 9.28451C206.876 9.28451 207.857 9.37465 208.563 9.55493C209.295 9.70516 209.883 9.99061 210.328 10.4113C210.773 10.8019 211.23 11.3878 211.701 12.169V0H217.428V31.5493H211.897V29.0704C211.426 29.9418 210.995 30.5577 210.603 30.9183C210.236 31.2488 209.713 31.5042 209.034 31.6845C208.327 31.8948 207.281 32 205.895 32ZM207.347 27.8986C208.628 27.8986 209.57 27.8235 210.171 27.6732C210.773 27.523 211.178 27.2526 211.387 26.862C211.596 26.4413 211.701 25.8254 211.701 25.0141V16.2254C211.701 15.4742 211.583 14.9033 211.348 14.5127C211.139 14.092 210.746 13.7915 210.171 13.6113C209.622 13.431 208.785 13.3408 207.661 13.3408C206.458 13.3408 205.595 13.431 205.071 13.6113C204.548 13.7615 204.195 14.0469 204.012 14.4676C203.855 14.8582 203.777 15.5192 203.777 16.4507V24.7887C203.777 25.63 203.855 26.2761 204.012 26.7268C204.195 27.1474 204.535 27.4479 205.032 27.6282C205.529 27.8085 206.301 27.8986 207.347 27.8986Z" fill="black"/><path d="M205.895 32C203.646 32 201.986 31.8197 200.913 31.4592C199.841 31.0685 199.096 30.3474 198.677 29.2958C198.259 28.2441 198.05 26.6066 198.05 24.3831V15.8648C198.05 13.461 198.638 11.7634 199.815 10.7718C201.018 9.78028 202.953 9.28451 205.621 9.28451C206.876 9.28451 207.857 9.37465 208.563 9.55493C209.295 9.70516 209.883 9.99061 210.328 10.4113C210.773 10.8019 211.23 11.3878 211.701 12.169V0H217.428V31.5493H211.897V29.0704C211.426 29.9418 210.995 30.5577 210.603 30.9183C210.236 31.2488 209.713 31.5042 209.034 31.6845C208.327 31.8948 207.281 32 205.895 32ZM207.347 27.8986C208.628 27.8986 209.57 27.8235 210.171 27.6732C210.773 27.523 211.178 27.2526 211.387 26.862C211.596 26.4413 211.701 25.8254 211.701 25.0141V16.2254C211.701 15.4742 211.583 14.9033 211.348 14.5127C211.139 14.092 210.746 13.7915 210.171 13.6113C209.622 13.431 208.785 13.3408 207.661 13.3408C206.458 13.3408 205.595 13.431 205.071 13.6113C204.548 13.7615 204.195 14.0469 204.012 14.4676C203.855 14.8582 203.777 15.5192 203.777 16.4507V24.7887C203.777 25.63 203.855 26.2761 204.012 26.7268C204.195 27.1474 204.535 27.4479 205.032 27.6282C205.529 27.8085 206.301 27.8986 207.347 27.8986Z" fill="url(#paint9_linear_9_1264)"/><path d="M231.997 32C225.276 32 221.916 29.6413 221.916 24.9239V17.0817C221.916 14.3474 222.674 12.3643 224.191 11.1324C225.734 9.90047 228.101 9.28451 231.291 9.28451C234.299 9.28451 236.496 9.88545 237.882 11.0873C239.294 12.2592 240 14.2573 240 17.0817V22.4H227.682V24.3831C227.682 25.6451 228.075 26.5465 228.859 27.0873C229.644 27.6282 231.056 27.8986 233.096 27.8986C234.979 27.8986 237.097 27.5831 239.451 26.9521V31.1437C237.123 31.7146 234.639 32 231.997 32ZM234.547 18.6592V15.5042C234.547 14.7831 234.286 14.2423 233.763 13.8817C233.266 13.5211 232.416 13.3408 231.213 13.3408C229.827 13.3408 228.898 13.5211 228.428 13.8817C227.931 14.2723 227.682 14.8131 227.682 15.5042V18.6592H234.547Z" fill="black"/><path d="M231.997 32C225.276 32 221.916 29.6413 221.916 24.9239V17.0817C221.916 14.3474 222.674 12.3643 224.191 11.1324C225.734 9.90047 228.101 9.28451 231.291 9.28451C234.299 9.28451 236.496 9.88545 237.882 11.0873C239.294 12.2592 240 14.2573 240 17.0817V22.4H227.682V24.3831C227.682 25.6451 228.075 26.5465 228.859 27.0873C229.644 27.6282 231.056 27.8986 233.096 27.8986C234.979 27.8986 237.097 27.5831 239.451 26.9521V31.1437C237.123 31.7146 234.639 32 231.997 32ZM234.547 18.6592V15.5042C234.547 14.7831 234.286 14.2423 233.763 13.8817C233.266 13.5211 232.416 13.3408 231.213 13.3408C229.827 13.3408 228.898 13.5211 228.428 13.8817C227.931 14.2723 227.682 14.8131 227.682 15.5042V18.6592H234.547Z" fill="url(#paint10_linear_9_1264)"/></g></g><defs><linearGradient id="paint0_linear_9_1264" x1="-2.197" y1="-6.76056" x2="218.726" y2="91.6682" gradientUnits="userSpaceOnUse"><stop offset="0.2" stop-color="#6A5DC2"/><stop offset="0.8" stop-color="#DC5DFC"/></linearGradient><linearGradient id="paint1_linear_9_1264" x1="-2.197" y1="-6.76056" x2="218.726" y2="91.6682" gradientUnits="userSpaceOnUse"><stop offset="0.2" stop-color="#6A5DC2"/><stop offset="0.8" stop-color="#DC5DFC"/></linearGradient><linearGradient id="paint2_linear_9_1264" x1="-2.197" y1="-6.76056" x2="218.726" y2="91.6682" gradientUnits="userSpaceOnUse"><stop offset="0.2" stop-color="#6A5DC2"/><stop offset="0.8" stop-color="#DC5DFC"/></linearGradient><linearGradient id="paint3_linear_9_1264" x1="-2.197" y1="-6.76056" x2="218.726" y2="91.6682" gradientUnits="userSpaceOnUse"><stop offset="0.2" stop-color="#6A5DC2"/><stop offset="0.8" stop-color="#DC5DFC"/></linearGradient><linearGradient id="paint4_linear_9_1264" x1="-2.197" y1="-6.76056" x2="218.726" y2="91.6682" gradientUnits="userSpaceOnUse"><stop offset="0.2" stop-color="#6A5DC2"/><stop offset="0.8" stop-color="#DC5DFC"/></linearGradient><linearGradient id="paint5_linear_9_1264" x1="-2.197" y1="-6.76056" x2="218.726" y2="91.6682" gradientUnits="userSpaceOnUse"><stop offset="0.2" stop-color="#6A5DC2"/><stop offset="0.8" stop-color="#DC5DFC"/></linearGradient><linearGradient id="paint6_linear_9_1264" x1="-2.197" y1="-6.76056" x2="218.726" y2="91.6682" gradientUnits="userSpaceOnUse"><stop offset="0.2" stop-color="#6A5DC2"/><stop offset="0.8" stop-color="#DC5DFC"/></linearGradient><linearGradient id="paint7_linear_9_1264" x1="-2.197" y1="-6.76056" x2="218.726" y2="91.6682" gradientUnits="userSpaceOnUse"><stop offset="0.2" stop-color="#6A5DC2"/><stop offset="0.8" stop-color="#DC5DFC"/></linearGradient><linearGradient id="paint8_linear_9_1264" x1="-2.197" y1="-6.76056" x2="218.726" y2="91.6682" gradientUnits="userSpaceOnUse"><stop offset="0.2" stop-color="#6A5DC2"/><stop offset="0.8" stop-color="#DC5DFC"/></linearGradient><linearGradient id="paint9_linear_9_1264" x1="-2.197" y1="-6.76056" x2="218.726" y2="91.6682" gradientUnits="userSpaceOnUse"><stop offset="0.2" stop-color="#6A5DC2"/><stop offset="0.8" stop-color="#DC5DFC"/></linearGradient><linearGradient id="paint10_linear_9_1264" x1="-2.197" y1="-6.76056" x2="218.726" y2="91.6682" gradientUnits="userSpaceOnUse"><stop offset="0.2" stop-color="#6A5DC2"/><stop offset="0.8" stop-color="#DC5DFC"/></linearGradient></defs></svg><svg id="mastercard" fill="none" xmlns="http://www.w3.org/2000/svg" viewBox="0 0 24 16"><g id="mastercard"><path d="M23.7705 12.6487V12.3574H23.6985L23.6145 12.5516L23.5305 12.3574H23.4585V12.6487H23.5065V12.4302L23.5905 12.6244H23.6505L23.7345 12.4302V12.6487H23.7705ZM23.2905 12.6487V12.406H23.3865V12.3574H23.1465V12.406H23.2425V12.6487H23.2905Z" fill="#00A2E5"/><path d="M15.2361 13.8978H8.74414V2.10173H15.2361V13.8978Z" fill="#FF5F00"/><path d="M9.16605 8C9.16605 5.60922 10.27 3.4733 11.998 2.10194C10.738 1.09466 9.14205 0.5 7.41405 0.5C3.32205 0.5 -0.00195312 3.86165 -0.00195312 8C-0.00195312 12.1383 3.32205 15.5 7.41405 15.5C9.14205 15.5 10.738 14.9053 11.998 13.8981C10.27 12.5267 9.16605 10.3908 9.16605 8Z" fill="#EB001B"/><path d="M23.998 8C23.998 12.1383 20.674 15.5 16.582 15.5C14.854 15.5 13.258 14.9053 11.998 13.8981C13.726 12.5267 14.83 10.3908 14.83 8C14.83 5.60922 13.726 3.4733 11.998 2.10194C13.258 1.09466 14.854 0.5 16.582 0.5C20.674 0.5 23.998 3.86165 23.998 8Z" fill="#F79E1B"/></g></svg><svg id="mir" fill="none" xmlns="http://www.w3.org/2000/svg" viewBox="0 0 30 10"><g id="mir"><path d="M21.3691 4.77539V9.49825H24.0601V6.83876H26.7691C28.1835 6.83876 29.3902 5.98056 29.8568 4.77539H21.3691Z" fill="white"/><path d="M21.248 0.5C21.2594 0.736954 21.2909 0.972313 21.3421 1.20317C21.3533 1.25392 21.3645 1.3056 21.3783 1.35543C21.3835 1.37573 21.3886 1.39603 21.3947 1.41726C21.6357 2.23304 22.1133 2.94546 22.7583 3.45121C23.4033 3.95695 24.1821 4.22971 24.9817 4.22993H29.9513C29.983 4.04513 29.9995 3.85769 30.0004 3.66979C29.9984 2.83011 29.6858 2.02541 29.1311 1.43148C28.5763 0.837557 27.8244 0.502679 27.0396 0.5H21.248Z" fill="url(#paint0_linear_9_1261)"/><path d="M16.5984 1.45048L14.7139 5.81806H14.5233V0.5H11.8496V9.5H14.1214C14.4136 9.49984 14.6996 9.41016 14.9457 9.24156C15.1918 9.07296 15.3876 8.8325 15.51 8.5486L17.3936 4.18194H17.5851V9.5H20.2587V0.5H17.9861C17.6941 0.50003 17.4082 0.589565 17.1623 0.758009C16.9163 0.926454 16.7207 1.16676 16.5984 1.45048Z" fill="white"/><path d="M4.13706 1.68302L5.25224 5.81806H5.44285L6.55803 1.68302C6.64986 1.34263 6.84242 1.04331 7.1068 0.82999C7.37118 0.616673 7.69311 0.500881 8.02423 0.5H10.6979V9.49908H8.02423V4.18194H7.83276L6.3036 9.49908H4.39235L2.86232 4.18194H2.67172V9.49908H-0.00195312V0.5H2.67172C3.00284 0.500881 3.32477 0.616673 3.58915 0.82999C3.85353 1.04331 4.04523 1.34263 4.13706 1.68302Z" fill="white"/></g><defs><linearGradient id="paint0_linear_9_1261" x1="-0.00195312" y1="5" x2="30.0004" y2="5" gradientUnits="userSpaceOnUse"><stop stop-color="#FBFFFA"/><stop offset="1" stop-color="#48C464"/></linearGradient></defs></svg><svg id="ok" fill="none" xmlns="http://www.w3.org/2000/svg" viewBox="0 0 36 36"><g id="ok"><rect x="0.5" y="0.5" width="35" height="35" rx="7.5" stroke="white" stroke-opacity="0.8"/><g id="Group 388"><path id="Shape" d="M19.919 22.2622L22.5725 24.8238C23.116 25.3474 23.116 26.1978 22.5725 26.722C22.0294 27.2462 21.1493 27.2462 20.6069 26.722L17.998 24.2048L15.3914 26.722C15.1196 26.9838 14.7635 27.1149 14.4074 27.1149C14.0518 27.1149 13.6962 26.9838 13.4244 26.722C12.8814 26.1978 12.8814 25.348 13.4238 24.8238L16.0776 22.2622C15.1114 22.0497 14.1796 21.6802 13.3213 21.1604C12.6718 20.7651 12.4767 19.9369 12.8859 19.3094C13.2941 18.681 14.1523 18.4919 14.803 18.8872C16.7461 20.0671 19.2493 20.0674 21.1936 18.8872C21.8443 18.4919 22.7023 18.681 23.1112 19.3094C23.5205 19.9364 23.3248 20.7651 22.6753 21.1604C21.817 21.6807 20.8852 22.0497 19.919 22.2622Z" fill="white" fill-opacity="0.8"/><path id="Combined Shape" fill-rule="evenodd" clip-rule="evenodd" d="M13.2402 13.9419C13.2402 16.4679 15.3691 18.5226 17.9868 18.5226C20.605 18.5226 22.7333 16.4679 22.7333 13.9419C22.7333 11.4151 20.605 9.35986 17.9868 9.35986C15.3691 9.35986 13.2402 11.4151 13.2402 13.9419ZM19.952 13.9414C19.952 12.8953 19.0705 12.0446 17.9867 12.0446C16.9038 12.0446 16.0214 12.8953 16.0214 13.9414C16.0214 14.9868 16.9038 15.838 17.9867 15.838C19.0705 15.838 19.952 14.9868 19.952 13.9414Z" fill="white" fill-opacity="0.8"/></g></g></svg><svg id="tg" fill="none" xmlns="http://www.w3.org/2000/svg" viewBox="0 0 36 36"><g id="telegram"><rect x="0.5" y="0.5" width="35" height="35" rx="7.5" stroke="white" stroke-opacity="0.8"/><path id="Shape" d="M8.60008 17.8588C10.2834 16.9315 12.1625 16.1576 13.9182 15.3798C16.9388 14.1058 19.9713 12.8538 23.0344 11.6882C23.6304 11.4896 24.7012 11.2954 24.8062 12.1786C24.7487 13.4288 24.5122 14.6716 24.35 15.9145C23.9382 18.6476 23.4623 21.3713 22.9982 24.0955C22.8383 25.0028 21.7016 25.4726 20.9742 24.8919C19.2263 23.7112 17.465 22.5421 15.7394 21.334C15.1741 20.7596 15.6983 19.9348 16.2031 19.5247C17.6427 18.1059 19.1695 16.9005 20.5339 15.4084C20.9019 14.5196 19.8145 15.2687 19.4558 15.4982C17.4849 16.8563 15.5623 18.2974 13.4844 19.4911C12.423 20.0753 11.1859 19.576 10.125 19.25C9.17372 18.8561 7.77979 18.4594 8.59999 17.8588L8.60008 17.8588Z" fill="white" fill-opacity="0.8"/></g></svg><svg id="visa" fill="none" xmlns="http://www.w3.org/2000/svg" viewBox="0 0 30 10"><g id="visa"><path fill-rule="evenodd" clip-rule="evenodd" d="M12.1232 0.172908L10.5963 9.83373H13.0392L14.5663 0.172908H12.1232ZM8.54088 0.172908L6.21169 6.81753L5.93618 5.38671L5.87566 5.06649C5.59377 4.44105 4.94091 3.25234 3.70812 2.23788C3.34365 1.93802 2.97626 1.68211 2.62109 1.46351L4.73795 9.83373H7.2833L11.1702 0.172908H8.54088ZM18.0753 2.85494C18.0753 1.7627 20.4545 1.90305 21.4999 2.49613L21.8485 0.421247C21.8485 0.421247 20.7726 0 19.6512 0C18.4388 0 15.5598 0.545853 15.5598 3.19814C15.5598 5.69427 18.9388 5.72529 18.9388 7.03579C18.9388 8.3463 15.9082 8.11209 14.908 7.28541L14.5445 9.45415C14.5445 9.45415 15.6353 10 17.3024 10C18.9693 10 21.4847 9.11095 21.4847 6.69259C21.4847 4.18085 18.0753 3.94691 18.0753 2.85494ZM28.0443 0.172908H26.0801C25.1731 0.172908 24.9523 0.892873 24.9523 0.892873L21.309 9.83373H23.8553L24.3647 8.39882H27.4705L27.757 9.83373H30.0001L28.0443 0.172908ZM25.0687 6.41632L26.3525 2.80101L27.0746 6.41632H25.0687Z" fill="#1C83E2"/><path fill-rule="evenodd" clip-rule="evenodd" d="M5.14868 1.08284C5.14868 1.08284 5.04756 0.210938 3.96802 0.210938H0.0459407L0 0.3748C0 0.3748 1.88526 0.770456 3.69393 2.25279C5.42237 3.66955 5.98622 5.4356 5.98622 5.4356L5.14868 1.08284Z" fill="#1C83E2"/></g></svg><svg id="vk" fill="none" xmlns="http://www.w3.org/2000/svg" viewBox="0 0 36 36"><g id="vk"><rect x="0.5" y="0.5" width="35" height="35" rx="7.5" stroke="white" stroke-opacity="0.8"/><path id="Path" fill-rule="evenodd" clip-rule="evenodd" d="M26.4865 14.3797C26.6253 13.9851 26.4865 13.6981 25.8719 13.6981H23.8298C23.3144 13.6981 23.0764 13.9492 22.9377 14.2183C22.9377 14.2183 21.8869 16.5141 20.4198 18.0027C19.9439 18.4332 19.7259 18.5767 19.4682 18.5767C19.3293 18.5767 19.1509 18.4332 19.1509 18.0386V14.3617C19.1509 13.8954 18.9923 13.6802 18.5561 13.6802H15.3444C15.0271 13.6802 14.8289 13.8954 14.8289 14.1106C14.8289 14.5591 15.5624 14.6667 15.6417 15.9222V18.6484C15.6417 19.2403 15.5228 19.3479 15.2651 19.3479C14.5711 19.3479 12.886 17.0342 11.8748 14.3976C11.6765 13.8775 11.4783 13.6802 10.9629 13.6802H8.90093C8.30617 13.6802 8.20703 13.9313 8.20703 14.2003C8.20703 14.6846 8.90093 17.1239 11.4386 20.3524C13.1239 22.5585 15.5228 23.7422 17.6838 23.7422C18.9923 23.7422 19.1509 23.4732 19.1509 23.0248V21.3568C19.1509 20.8187 19.2699 20.729 19.6862 20.729C19.9836 20.729 20.5189 20.8725 21.7283 21.9307C23.1161 23.1862 23.354 23.7602 24.1272 23.7602H26.1693C26.764 23.7602 27.0416 23.4911 26.883 22.971C26.7046 22.4509 26.0305 21.6976 25.1582 20.8007C24.6823 20.2986 23.9686 19.7426 23.7505 19.4735C23.4531 19.1148 23.5324 18.9713 23.7505 18.6484C23.7307 18.6484 26.2287 15.4559 26.4865 14.3797Z" fill="white" fill-opacity="0.8"/></g></svg><svg id="yt" fill="none" xmlns="http://www.w3.org/2000/svg" viewBox="0 0 36 36"><g id="youtube"><rect x="0.5" y="0.5" width="35" height="35" rx="7.5" stroke="white" stroke-opacity="0.8"/><path id="Subtract" fill-rule="evenodd" clip-rule="evenodd" d="M24.0013 13.0496C24.6622 13.2309 25.1827 13.7653 25.3593 14.4439C25.6803 15.6738 25.6803 18.24 25.6803 18.24C25.6803 18.24 25.6803 20.8061 25.3593 22.036C25.1827 22.7146 24.6622 23.249 24.0013 23.4305C22.8035 23.76 18.0003 23.76 18.0003 23.76C18.0003 23.76 13.1971 23.76 11.9993 23.4305C11.3383 23.249 10.8179 22.7146 10.6412 22.036C10.3203 20.8061 10.3203 18.24 10.3203 18.24C10.3203 18.24 10.3203 15.6738 10.6412 14.4439C10.8179 13.7653 11.3383 13.2309 11.9993 13.0496C13.1971 12.72 18.0003 12.72 18.0003 12.72C18.0003 12.72 22.8035 12.72 24.0013 13.0496ZM16.5603 16.0802V20.8802L20.4003 18.4803L16.5603 16.0802Z" fill="white" fill-opacity="0.8"/></g></svg></svg>